<svg width="60" height="60" viewBox="0 0 60 60" fill="none" xmlns="http://www.w3.org/2000/svg">
<path fill-rule="evenodd" clip-rule="evenodd" d="M18.1652 50H41.834C40.883 44.3252 35.9447 40 29.9996 40C24.0544 40 19.1161 44.3252 18.1652 50ZM41.9996 52C43.1041 52 44.0146 51.0994 43.8586 50.0059C42.8907 43.2185 37.0546 38 29.9996 38C22.9446 38 17.1084 43.2185 16.1405 50.0059C15.9846 51.0994 16.895 52 17.9996 52H41.9996Z" fill="white"/>
<path fill-rule="evenodd" clip-rule="evenodd" d="M5.19018 50H23.8108C22.9212 45.378 19.0364 42 14.5005 42C9.9646 42 6.07975 45.378 5.19018 50ZM4.9992 50C4.99835 49.9999 4.99794 49.9998 4.99795 49.9998L4.9992 50ZM24.0005 52C25.105 52 26.0174 51.0983 25.8427 50.0076C24.9332 44.3284 20.2013 40 14.5005 40C8.79968 40 4.06773 44.3284 3.15826 50.0076C2.98359 51.0983 3.89591 52 5.00048 52H24.0005Z" fill="white"/>
<path fill-rule="evenodd" clip-rule="evenodd" d="M36.1902 50H54.8108C53.9212 45.378 50.0364 42 45.5005 42C40.9646 42 37.0797 45.378 36.1902 50ZM35.9992 50C35.9983 49.9999 35.9979 49.9998 35.9979 49.9998L35.9992 50ZM55.0005 52C56.105 52 57.0174 51.0983 56.8427 50.0076C55.9332 44.3284 51.2013 40 45.5005 40C39.7997 40 35.0677 44.3284 34.1583 50.0076C33.9836 51.0983 34.8959 52 36.0005 52H55.0005Z" fill="white"/>
<path fill-rule="evenodd" clip-rule="evenodd" d="M30 38C32.7614 38 35 35.7614 35 33C35 30.2386 32.7614 28 30 28C27.2386 28 25 30.2386 25 33C25 35.7614 27.2386 38 30 38ZM30 40C33.866 40 37 36.866 37 33C37 29.134 33.866 26 30 26C26.134 26 23 29.134 23 33C23 36.866 26.134 40 30 40Z" fill="white"/>
<path fill-rule="evenodd" clip-rule="evenodd" d="M14.5 40C16.433 40 18 38.433 18 36.5C18 34.567 16.433 33 14.5 33C12.567 33 11 34.567 11 36.5C11 38.433 12.567 40 14.5 40ZM14.5 42C17.5376 42 20 39.5376 20 36.5C20 33.4624 17.5376 31 14.5 31C11.4624 31 9 33.4624 9 36.5C9 39.5376 11.4624 42 14.5 42Z" fill="white"/>
<path fill-rule="evenodd" clip-rule="evenodd" d="M45.5 40C47.433 40 49 38.433 49 36.5C49 34.567 47.433 33 45.5 33C43.567 33 42 34.567 42 36.5C42 38.433 43.567 40 45.5 40ZM45.5 42C48.5376 42 51 39.5376 51 36.5C51 33.4624 48.5376 31 45.5 31C42.4624 31 40 33.4624 40 36.5C40 39.5376 42.4624 42 45.5 42Z" fill="white"/>
<path fill-rule="evenodd" clip-rule="evenodd" d="M26 11H34C35.1046 11 36 11.8954 36 13V26C36 26.5523 36.4477 27 37 27C37.5523 27 38 26.5523 38 26V13C38 10.7909 36.2091 9 34 9H26C23.7909 9 22 10.7909 22 13V26C22 26.5523 22.4477 27 23 27C23.5523 27 24 26.5523 24 26V13C24 11.8954 24.8954 11 26 11Z" fill="white"/>
<path fill-rule="evenodd" clip-rule="evenodd" d="M44 2H52C53.1046 2 54 2.89543 54 4V5V6V10V41C54 41.5523 54.4477 42 55 42C55.5523 42 56 41.5523 56 41V10V6V5V4C56 1.79086 54.2091 0 52 0H44C41.7909 0 40 1.79086 40 4V29C40 29.5523 40.4477 30 41 30C41.5523 30 42 29.5523 42 29V4C42 2.89543 42.8954 2 44 2Z" fill="white"/>
<path fill-rule="evenodd" clip-rule="evenodd" d="M8 21H16C17.1046 21 18 21.8954 18 23V29C18 29.5523 18.4477 30 19 30C19.5523 30 20 29.5523 20 29V23C20 20.7909 18.2091 19 16 19H8C5.79086 19 4 20.7909 4 23V25V26V30V31V37C4 38.8675 5.27976 40.4361 7.01012 40.8766C7.54533 41.0128 8 40.5523 8 40C8 39.4477 7.52548 39.0207 7.04103 38.7555C6.42067 38.4159 6 37.7571 6 37V31V30V26V25V23C6 21.8954 6.89543 21 8 21Z" fill="white"/>
<path fill-rule="evenodd" clip-rule="evenodd" d="M54 56H6C5.44772 56 5 56.4477 5 57C5 57.5523 5.44772 58 6 58H45H46H50H51H54C54.5523 58 55 57.5523 55 57C55 56.4477 54.5523 56 54 56ZM51 60H50H46H45H6C4.34315 60 3 58.6569 3 57C3 55.3431 4.34315 54 6 54H54C55.6569 54 57 55.3431 57 57C57 58.6569 55.6569 60 54 60H51Z" fill="white"/>
</svg>
