<svg width="60" height="60" viewBox="0 0 60 60" fill="none" xmlns="http://www.w3.org/2000/svg">
<path d="M52.0225 32.5396C52.0225 32.4396 49.0225 27.0396 49.3225 23.0396C49.5225 20.3396 48.9225 18.2396 47.6225 17.1396C46.7225 16.4396 45.7225 16.2396 44.6225 16.5396C43.1225 16.9396 39.8225 18.6396 40.9225 25.4396L30.3225 16.7396L30.2225 16.6396C29.3225 16.0396 27.1225 15.5396 25.3225 17.2396C24.6225 17.9396 24.3225 18.7396 24.3225 19.4396C23.6225 19.1396 22.9225 19.0396 22.2225 19.0396C21.1225 19.1396 20.1225 19.5396 19.5225 20.3396C18.8225 21.2396 18.6225 22.2396 18.8225 23.4396C18.9225 23.8396 19.0225 24.1396 19.2225 24.4396C18.3225 24.5396 17.6225 25.0396 17.1225 25.7396C16.5225 26.6396 16.3225 27.7396 16.5225 28.9396C16.7225 29.8396 17.2225 30.7396 17.9225 31.4396C17.3225 31.6396 16.8225 31.9396 16.4225 32.4396C15.9225 32.9396 15.3225 33.9396 15.7225 35.7396C15.9225 36.7396 16.5225 37.6396 17.3225 38.3396L34.1225 52.6396C34.1225 52.6396 36.9225 54.9396 41.1225 54.9396C43.7225 54.9396 46.9225 54.0396 50.3225 51.0396C58.9225 43.4396 52.0225 32.6396 52.0225 32.5396ZM48.8225 49.5396C41.4225 56.0396 35.4225 51.3396 35.2225 51.1396L18.4225 36.8396C17.9225 36.4396 17.6225 35.9396 17.5225 35.3396C17.4225 34.6396 17.4225 34.0396 17.7225 33.8396C18.1225 33.4396 18.6225 33.2396 19.2225 33.2396C19.7225 33.2396 20.2225 33.5396 20.8225 33.9396L30.7225 42.3396C30.9225 42.5396 31.1225 42.5396 31.3225 42.5396C31.6225 42.5396 31.9225 42.4396 32.1225 42.1396C32.5225 41.7396 32.4225 41.0396 32.0225 40.7396L23.0225 33.1396C22.6225 32.7396 22.3225 32.4396 21.9225 32.2396L19.3225 30.0396C18.8225 29.6396 18.5225 29.1396 18.4225 28.5396C18.3225 27.8396 18.4225 27.3396 18.7225 26.9396C18.9225 26.6396 19.2225 26.4396 19.6225 26.4396C20.2225 26.3396 20.9225 26.6396 21.7225 27.1396L34.2225 37.6396C34.4225 37.8396 34.6225 37.8396 34.8225 37.8396C35.1225 37.8396 35.4225 37.7396 35.6225 37.4396C36.0225 37.0396 35.9225 36.3396 35.5225 36.0396L24.0225 26.3396C23.6225 25.9396 23.3225 25.6396 22.9225 25.4396L21.7225 24.4396C21.2225 24.0396 20.9225 23.5396 20.8225 22.9396C20.7225 22.3396 20.8225 21.9396 21.1225 21.5396C21.4225 21.2396 21.8225 20.9396 22.4225 20.9396C23.3225 20.8396 24.4225 21.4396 25.4225 22.3396L38.3225 33.3396C38.7225 33.7396 39.4225 33.6396 39.7225 33.2396C40.1225 32.8396 40.0225 32.1396 39.6225 31.8396L26.7225 21.1396C26.5225 20.7396 25.8225 19.4396 26.7225 18.6396C27.6225 17.7396 28.8225 18.1396 29.1225 18.3396L40.4225 27.6396C40.9225 28.0396 41.6225 28.1396 42.2225 27.7396C42.8225 27.3396 43.1225 26.7396 42.9225 26.0396C42.0225 21.7396 42.8225 18.9396 45.0225 18.3396C45.4225 18.2396 45.8225 18.3396 46.2225 18.6396C46.6225 18.9396 47.5225 20.0396 47.2225 22.8396C46.8225 27.4396 50.0225 33.2396 50.2225 33.5396C50.5225 34.0396 56.3225 43.0396 48.8225 49.5396Z" fill="#32D989"/>
<path d="M20.9848 8.70301C30.3848 2.50301 38.4848 10.203 38.8848 10.503C39.0848 10.703 39.2848 10.803 39.5848 10.803C39.8848 10.803 40.0848 10.703 40.2848 10.503C40.6848 10.103 40.6848 9.50301 40.2848 9.10301C40.0848 9.00301 30.6848 0.0030098 19.8848 7.00301C19.3848 7.30301 19.2848 7.90301 19.5848 8.40301C19.8848 8.80301 20.4848 9.00301 20.9848 8.70301Z" fill="#32D989"/>
<path d="M24.4844 10.6031C23.9844 10.9031 23.8844 11.5031 24.1844 12.0031C24.4844 12.5031 25.0844 12.6031 25.5844 12.3031C29.7844 9.6031 33.3844 13.0031 33.4844 13.1031C33.6844 13.3031 33.8844 13.4031 34.1844 13.4031C34.4844 13.4031 34.6844 13.3031 34.8844 13.1031C35.2844 12.7031 35.2844 12.1031 34.8844 11.7031C33.2844 10.0031 28.8844 7.7031 24.4844 10.6031Z" fill="#32D989"/>
<path d="M16.6848 47.9304C5.68477 45.6304 5.38477 34.4304 5.38477 33.9304C5.38477 33.4304 4.88477 32.9304 4.38477 32.9304C3.78477 32.9304 3.38477 33.4304 3.38477 33.9304C3.38477 34.0304 3.68476 47.1304 16.2848 49.7304C16.3848 49.7304 16.3848 49.7304 16.4848 49.7304C16.9848 49.7304 17.3848 49.4304 17.4848 48.9304C17.5848 48.5304 17.2848 48.0304 16.6848 47.9304Z" fill="#32D989"/>
<path d="M15.5844 44.0303C15.6844 44.0303 15.6844 44.0303 15.7844 44.0303C16.2844 44.0303 16.6844 43.7303 16.7844 43.2303C16.8844 42.7303 16.5844 42.1303 15.9844 42.0303C11.0844 41.0303 10.9844 36.0303 10.9844 35.8303C10.9844 35.2303 10.4844 34.8303 9.98438 34.8303C9.38437 34.8303 8.98438 35.3303 8.98438 35.8303C8.98438 38.2303 10.4844 42.9303 15.5844 44.0303Z" fill="#32D989"/>
</svg>
