<svg width="24" height="24" viewBox="0 0 24 24" fill="none" xmlns="http://www.w3.org/2000/svg">
<path fill-rule="evenodd" clip-rule="evenodd" d="M1 12C1 5.89809 6.02996 1 12.2025 1C15.2163 1 17.757 2.08796 19.7123 3.87575L20.5063 4.6018L16.2701 8.60371L15.5833 7.95384C14.9753 7.37847 13.8827 6.6875 12.2025 6.6875C9.27082 6.6875 6.87885 9.06837 6.87885 11.9994C6.87885 14.9303 9.2714 17.3113 12.2025 17.3113C14.6647 17.3113 15.974 16.0953 16.5828 14.9981H11.2025V9.57056L22.6741 9.5713L22.8217 10.3948C22.9161 10.9215 23 11.4875 23 12.2281C23 15.3185 21.9393 18.0246 20.0195 19.9614C18.0981 21.8997 15.3831 23 12.2025 23C6.02996 23 1 18.1019 1 12ZM12.2025 3C7.09614 3 3 7.04066 3 12C3 16.9593 7.09614 21 12.2025 21C14.9099 21 17.0936 20.0721 18.5991 18.5534C20.106 17.0332 21 14.8533 21 12.2281C21 11.9894 20.9892 11.7745 20.9704 11.5712L13.2025 11.5707V12.9981H19.1642L18.9785 14.1565C18.6847 15.9881 16.8482 19.3113 12.2025 19.3113C8.17289 19.3113 4.87885 16.0409 4.87885 11.9994C4.87885 7.95788 8.17219 4.6875 12.2025 4.6875C13.9562 4.6875 15.2859 5.2511 16.2189 5.90072L17.523 4.66876C16.0634 3.61801 14.2842 3 12.2025 3Z" fill="#8770FF"/>
</svg>
