<svg width="103" height="23" viewBox="0 0 103 23" fill="none" xmlns="http://www.w3.org/2000/svg">
<path d="M27.5343 6H37.7609V7.84615H33.7398V18.2243H31.5287V7.84615H27.5254V6H27.5343ZM37.324 9.37311H39.2142V11.0812H39.2499C39.3123 10.8397 39.4282 10.6068 39.5976 10.3825C39.767 10.1582 39.9721 9.94249 40.2128 9.76132C40.4535 9.57153 40.721 9.42487 41.0152 9.3041C41.3095 9.19195 41.6126 9.13156 41.9157 9.13156C42.1476 9.13156 42.317 9.14019 42.4061 9.14881C42.4953 9.15744 42.5844 9.1747 42.6825 9.18332V11.064C42.5399 11.0381 42.3972 11.0208 42.2456 11.0036C42.0941 10.9863 41.9514 10.9777 41.8088 10.9777C41.47 10.9777 41.149 11.0467 40.8458 11.1761C40.5427 11.3055 40.2841 11.504 40.0612 11.7541C39.8383 12.0129 39.66 12.3235 39.5263 12.7031C39.3925 13.0827 39.3301 13.514 39.3301 14.0058V18.2157H37.3151V9.37311H37.324ZM51.9462 18.2243H49.9669V16.9907H49.9312C49.6816 17.4393 49.316 17.793 48.8256 18.0604C48.3352 18.3278 47.8359 18.4659 47.3277 18.4659C46.1241 18.4659 45.2503 18.1812 44.7154 17.6032C44.1804 17.0252 43.9129 16.1538 43.9129 14.9892V9.37311H45.9279V14.7994C45.9279 15.5758 46.0795 16.128 46.3916 16.4472C46.6947 16.7664 47.1316 16.9303 47.6844 16.9303C48.1123 16.9303 48.4601 16.8699 48.7454 16.7405C49.0307 16.6111 49.2625 16.4472 49.4319 16.2315C49.6102 16.0244 49.735 15.7656 49.8153 15.4723C49.8955 15.179 49.9312 14.8598 49.9312 14.5147V9.38174H51.9462V18.2243ZM55.3788 15.3861C55.4413 15.9554 55.6642 16.3523 56.0475 16.5852C56.4398 16.8095 56.9035 16.9303 57.4474 16.9303C57.6346 16.9303 57.8486 16.913 58.0893 16.8871C58.33 16.8613 58.5618 16.8009 58.7669 16.7232C58.9809 16.6456 59.1503 16.5248 59.293 16.3695C59.4267 16.2142 59.4891 16.0158 59.4802 15.7656C59.4713 15.5155 59.3732 15.3084 59.1949 15.1531C59.0166 14.9892 58.7937 14.8684 58.5173 14.7649C58.2409 14.67 57.9288 14.5838 57.5722 14.5147C57.2155 14.4457 56.8589 14.3681 56.4933 14.2904C56.1189 14.2128 55.7533 14.1093 55.4056 13.9971C55.0579 13.885 54.7458 13.7297 54.4694 13.5313C54.193 13.3415 53.9701 13.0913 53.8096 12.7894C53.6402 12.4874 53.56 12.1165 53.56 11.6679C53.56 11.1848 53.6848 10.7879 53.9255 10.4601C54.1663 10.1323 54.4783 9.87347 54.8439 9.67505C55.2184 9.47664 55.6285 9.33861 56.0832 9.25234C56.5379 9.1747 56.9748 9.13156 57.3849 9.13156C57.8575 9.13156 58.3122 9.18332 58.7402 9.27822C59.1681 9.37311 59.5604 9.5284 59.9082 9.7527C60.2559 9.96837 60.5412 10.2531 60.773 10.5981C61.0048 10.9432 61.1475 11.3659 61.2099 11.8577H59.1057C59.0076 11.3918 58.7937 11.0726 58.4459 10.9173C58.0982 10.7534 57.697 10.6758 57.2512 10.6758C57.1085 10.6758 56.9391 10.6844 56.743 10.7103C56.5468 10.7362 56.3685 10.7793 56.1902 10.8397C56.0208 10.9001 55.8781 10.995 55.7533 11.1157C55.6374 11.2365 55.575 11.3918 55.575 11.5902C55.575 11.8318 55.6642 12.0216 55.8336 12.1682C56.003 12.3149 56.2259 12.4357 56.5023 12.5392C56.7787 12.6341 57.0907 12.7203 57.4474 12.7894C57.804 12.8584 58.1695 12.936 58.544 13.0137C58.9096 13.0913 59.2662 13.1948 59.6228 13.307C59.9795 13.4191 60.2915 13.5744 60.5679 13.7728C60.8443 13.9712 61.0672 14.2128 61.2366 14.5061C61.406 14.7994 61.4952 15.1704 61.4952 15.6017C61.4952 16.128 61.3704 16.5679 61.1207 16.9389C60.8711 17.3012 60.5501 17.6032 60.1578 17.8275C59.7655 18.0518 59.3197 18.2243 58.8382 18.3278C58.3568 18.4313 57.8753 18.4831 57.4028 18.4831C56.8232 18.4831 56.2883 18.4227 55.7979 18.2933C55.3075 18.1639 54.8796 17.9741 54.5229 17.7239C54.1663 17.4651 53.881 17.1459 53.6759 16.7664C53.4708 16.3868 53.3638 15.9295 53.346 15.4033H55.3788V15.3861ZM62.0302 9.37311H63.5548V6.71603H65.5698V9.37311H67.3886V10.8311H65.5698V15.5586C65.5698 15.7656 65.5787 15.9382 65.5965 16.0935C65.6144 16.2401 65.659 16.3695 65.7214 16.473C65.7838 16.5766 65.8818 16.6542 66.0156 16.706C66.1493 16.7577 66.3187 16.7836 66.5505 16.7836C66.6932 16.7836 66.8359 16.7836 66.9785 16.775C67.1212 16.7664 67.2638 16.7491 67.4065 16.7146V18.2243C67.1836 18.2502 66.9607 18.2674 66.7556 18.2933C66.5416 18.3192 66.3276 18.3278 66.1047 18.3278C65.5698 18.3278 65.1418 18.2761 64.8209 18.1812C64.4999 18.0863 64.2413 17.9396 64.063 17.7498C63.8758 17.56 63.7599 17.3271 63.6885 17.0424C63.6261 16.7577 63.5815 16.4299 63.5726 16.0676V10.8483H62.048V9.37311H62.0302ZM68.8152 9.37311H70.7232V10.5723H70.7589C71.0442 10.0546 71.4365 9.69231 71.9447 9.46801C72.4529 9.24371 72.9968 9.13156 73.5942 9.13156C74.3163 9.13156 74.9405 9.25234 75.4754 9.50252C76.0104 9.74407 76.4562 10.0805 76.8128 10.5119C77.1695 10.9432 77.428 11.4436 77.6063 12.0129C77.7847 12.5823 77.8738 13.1948 77.8738 13.8418C77.8738 14.4371 77.7936 15.0151 77.6331 15.5672C77.4726 16.128 77.2319 16.6197 76.9109 17.051C76.5899 17.4824 76.1798 17.8188 75.6805 18.0776C75.1812 18.3364 74.6017 18.4659 73.924 18.4659C73.6298 18.4659 73.3356 18.44 73.0414 18.3882C72.7471 18.3365 72.4618 18.2502 72.1943 18.138C71.9269 18.0259 71.6683 17.8792 71.4454 17.6981C71.2136 17.5169 71.0264 17.3098 70.8659 17.0769H70.8302V21.4939H68.8152V9.37311ZM75.8588 13.8073C75.8588 13.4105 75.8053 13.0223 75.6983 12.6427C75.5913 12.2631 75.4308 11.9353 75.2169 11.642C75.0029 11.3487 74.7354 11.1157 74.4233 10.9432C74.1024 10.7707 73.7368 10.6758 73.3267 10.6758C72.4797 10.6758 71.8377 10.9605 71.4097 11.5298C70.9818 12.0992 70.7678 12.8584 70.7678 13.8073C70.7678 14.2559 70.8213 14.67 70.9372 15.0496C71.0531 15.4292 71.2136 15.757 71.4454 16.0331C71.6683 16.3091 71.9358 16.5248 72.2478 16.6801C72.5599 16.844 72.9255 16.9216 73.3356 16.9216C73.7992 16.9216 74.1826 16.8267 74.5036 16.6456C74.8246 16.4644 75.0831 16.2229 75.2882 15.9382C75.4933 15.6449 75.6448 15.317 75.734 14.9461C75.8142 14.5751 75.8588 14.1955 75.8588 13.8073ZM79.4163 6H81.4313V7.84615H79.4163V6ZM79.4163 9.37311H81.4313V18.2243H79.4163V9.37311ZM83.2323 6H85.2473V18.2243H83.2323V6ZM91.4261 18.4659C90.695 18.4659 90.0441 18.3451 89.4735 18.1122C88.9029 17.8792 88.4214 17.5514 88.0202 17.1459C87.6279 16.7318 87.3247 16.2401 87.1197 15.6707C86.9146 15.1014 86.8076 14.4716 86.8076 13.7901C86.8076 13.1172 86.9146 12.496 87.1197 11.9267C87.3247 11.3573 87.6279 10.8656 88.0202 10.4515C88.4125 10.0374 88.9029 9.71819 89.4735 9.48526C90.0441 9.25234 90.695 9.13156 91.4261 9.13156C92.1572 9.13156 92.808 9.25234 93.3787 9.48526C93.9493 9.71819 94.4308 10.046 94.832 10.4515C95.2243 10.8656 95.5274 11.3573 95.7325 11.9267C95.9376 12.496 96.0445 13.1172 96.0445 13.7901C96.0445 14.4716 95.9376 15.1014 95.7325 15.6707C95.5274 16.2401 95.2243 16.7318 94.832 17.1459C94.4397 17.56 93.9493 17.8792 93.3787 18.1122C92.808 18.3451 92.1572 18.4659 91.4261 18.4659ZM91.4261 16.9216C91.8719 16.9216 92.2642 16.8267 92.5941 16.6456C92.924 16.4644 93.1914 16.2229 93.4054 15.9295C93.6194 15.6362 93.771 15.2998 93.878 14.9288C93.976 14.5579 94.0295 14.1783 94.0295 13.7901C94.0295 13.4105 93.976 13.0395 93.878 12.66C93.7799 12.2804 93.6194 11.9526 93.4054 11.6592C93.1914 11.3659 92.924 11.133 92.5941 10.9518C92.2642 10.7707 91.8719 10.6758 91.4261 10.6758C90.9803 10.6758 90.588 10.7707 90.2581 10.9518C89.9282 11.133 89.6607 11.3746 89.4467 11.6592C89.2327 11.9526 89.0812 12.2804 88.9742 12.66C88.8761 13.0395 88.8226 13.4105 88.8226 13.7901C88.8226 14.1783 88.8761 14.5579 88.9742 14.9288C89.0723 15.2998 89.2327 15.6362 89.4467 15.9295C89.6607 16.2229 89.9282 16.4644 90.2581 16.6456C90.588 16.8354 90.9803 16.9216 91.4261 16.9216ZM96.633 9.37311H98.1576V6.71603H100.173V9.37311H101.991V10.8311H100.173V15.5586C100.173 15.7656 100.182 15.9382 100.199 16.0935C100.217 16.2401 100.262 16.3695 100.324 16.473C100.387 16.5766 100.485 16.6542 100.618 16.706C100.752 16.7577 100.922 16.7836 101.153 16.7836C101.296 16.7836 101.439 16.7836 101.581 16.775C101.724 16.7664 101.867 16.7491 102.009 16.7146V18.2243C101.786 18.2502 101.564 18.2674 101.358 18.2933C101.144 18.3192 100.93 18.3278 100.708 18.3278C100.173 18.3278 99.7447 18.2761 99.4237 18.1812C99.1027 18.0863 98.8442 17.9396 98.6658 17.7498C98.4786 17.56 98.3627 17.3271 98.2914 17.0424C98.229 16.7577 98.1844 16.4299 98.1755 16.0676V10.8483H96.6508V9.37311H96.633Z" fill="#1D212A"/>
<path d="M25.1792 8.50611H15.9423L13.0892 0L10.2272 8.50611L0.990234 8.49748L8.47073 13.7599L5.6087 22.2574L13.0892 17.0036L20.5608 22.2574L17.7077 13.7599L25.1792 8.50611Z" fill="#00B67A"/>
<path d="M18.3444 15.6865L17.7025 13.7627L13.084 17.0064L18.3444 15.6865Z" fill="#005128"/>
</svg>
